<svg width="100" height="100" viewBox="0 0 100 100" fill="none" xmlns="http://www.w3.org/2000/svg">
<g clip-path="url(#clip0_101_2)">
<path d="M50.7895 0.000368902C50.6612 0.000368902 50.54 0.0349844 50.4188 0.0349844C50.041 0.023446 49.6667 -0.00347724 49.2853 0.000368902H50.7895ZM50.205 62.5924C50.1372 62.5924 50.0766 62.5809 50.0089 62.5809C49.959 62.5809 49.9127 62.5924 49.8628 62.5924H50.205ZM29.0037 39.5618C29.0572 39.5502 29.0964 39.4887 29.1534 39.4733C32.5076 52.5694 41.1905 62.3694 50.0125 62.5771C58.0467 62.1771 67.913 52.554 71.1994 39.5233C72.7107 39.6233 74.2221 37.7002 74.6462 35.0233C75.0847 32.231 74.165 29.7387 72.6074 29.4503C72.5076 29.431 72.4042 29.5003 72.308 29.5041C71.8553 7.95418 62.3668 0.354214 50.4188 0.0272922C38.0966 0.0926766 27.0647 9.3311 27.7633 29.5118C27.6457 29.5118 27.5352 29.431 27.4211 29.4541C25.8564 29.7426 24.9439 32.2349 25.3823 35.0272C25.81 37.8118 27.4354 39.8425 29.0037 39.5618ZM66.612 66.3194L55.4161 89.9577L53.6482 74.5847L56.4106 72.1386H49.7166H43.5965L46.3625 74.5847L44.591 89.9577L33.4094 66.3194C13.9619 69.1463 0 78.1385 0 100H100C100.007 78.1347 86.0488 69.1501 66.612 66.3194Z" fill="#bdbdbd"/>
</g>
<defs>
<clipPath id="clip0_101_2">
<rect width="100" height="100" fill="white"/>
</clipPath>
</defs>
</svg>
