<svg width="100" height="100" viewBox="0 0 100 100" fill="none" xmlns="http://www.w3.org/2000/svg">
<g clip-path="url(#clip0_101_22)">
<path d="M61.5776 63.505V59.3043C61.5776 59.3043 74.815 59.7141 81.1058 53.3003C81.1058 53.3003 71.9667 50.7184 73.606 34.059C75.2453 17.4201 71.5569 2.80977 58.176 4.03925C58.176 4.03925 52.377 -2.94828 40.8404 1.45735C36.8856 2.9737 26.2506 6.76459 26.7834 29.8378C27.3161 52.8905 18.5868 53.0339 18.5868 53.0339C18.5868 53.0339 23.0949 59.5912 38.3814 59.4477V63.7509L50 97.6845L61.5981 63.8124L61.5776 63.505Z" fill="#bdbdbd"/>
<path d="M92.7858 98.1763L90.4498 85.2668C89.6917 81.0865 86.9868 77.5005 83.1754 75.6153L68.5446 68.4024C67.7045 67.9926 66.8848 67.5213 66.0652 67.0705L70.6757 80.6767L64.221 80.1849L50 97.6845L35.779 80.1849L29.3243 80.6767L34.0373 67.0705L31.107 68.5663L16.8246 75.6153C13.0132 77.5005 10.3084 81.0865 9.55018 85.2668L7.21417 98.1763C7.05024 99.1189 7.76744 100 8.73053 100H49.4467H50.5123H91.2285C92.2326 100 92.9498 99.1189 92.7858 98.1763Z" fill="#bdbdbd"/>
</g>
<defs>
<clipPath id="clip0_101_22">
<rect width="100" height="100" fill="white"/>
</clipPath>
</defs>
</svg>
